<?xml version="1.0" encoding="UTF-8"?>
<svg id="Layer_2" xmlns="http://www.w3.org/2000/svg" viewBox="0 0 11.63 14.78">
  <defs>
    <style>
      .cls-1 {
        fill: #f1b822;
      }
    </style>
  </defs>
  <g id="Interaction">
    <g id="Final_screen">
      <g id="Reaction">
        <path class="cls-1" d="M6.87,2.11v1.15c.63.12,1.22.33,1.78.64l.55-.55c.13-.13.28-.2.47-.2s.34.07.48.2l1.29,1.3c.13.13.2.28.2.47s-.07.34-.2.48l-.54.55c.23.42.42.86.54,1.34s.19.97.19,1.49c0,.8-.15,1.55-.45,2.26-.3.7-.72,1.32-1.25,1.85s-1.15.95-1.85,1.25c-.7.3-1.46.45-2.26.45s-1.55-.15-2.25-.45c-.7-.3-1.32-.72-1.85-1.25s-.95-1.15-1.25-1.85S0,9.77,0,8.97c0-.51.06-1.01.19-1.48.13-.48.31-.92.54-1.34l-.55-.54c-.13-.13-.2-.29-.2-.48s.07-.34.2-.47l1.3-1.3c.13-.13.29-.2.48-.2s.34.07.47.2l.54.54c.56-.31,1.15-.53,1.78-.64v-1.15h-.39c-.18,0-.34-.06-.47-.19-.13-.13-.2-.29-.2-.47v-.78c0-.18.07-.34.2-.47.13-.13.29-.2.47-.2h2.88c.19,0,.34.07.48.2s.2.29.2.47v.78c0,.19-.06.34-.19.47-.13.13-.29.19-.47.19h-.39ZM7.66,13.36c.57-.25,1.08-.59,1.51-1.02s.78-.94,1.02-1.51c.25-.57.37-1.19.37-1.85s-.12-1.27-.37-1.84c-.25-.57-.59-1.08-1.02-1.52-.43-.44-.94-.78-1.51-1.02-.57-.24-1.19-.37-1.85-.37s-1.27.12-1.84.37c-.57.24-1.08.58-1.52,1.02s-.78.94-1.02,1.52c-.25.57-.37,1.19-.37,1.84s.12,1.28.37,1.85c.24.57.58,1.08,1.02,1.51.44.43.94.77,1.52,1.02.57.25,1.19.37,1.84.37s1.28-.12,1.85-.37ZM2.12,8.44c-.15,0-.28.05-.38.15-.1.1-.15.23-.15.37s.05.27.15.37.23.15.37.15h.53c.15,0,.27-.05.37-.15s.15-.23.15-.37-.05-.27-.15-.37-.23-.15-.37-.15h-.53ZM3.57,5.99c-.1-.11-.23-.16-.37-.16s-.27.05-.37.16c-.1.1-.15.23-.15.37s.05.27.15.37l.38.37c.1.1.23.15.37.15s.27-.05.37-.15.15-.23.15-.37-.05-.27-.15-.37l-.37-.37ZM2.83,11.21c-.1.11-.15.23-.15.38s.05.27.15.37c.1.1.23.15.37.15s.27-.05.37-.15l.37-.38c.1-.1.15-.23.15-.37s-.05-.27-.15-.37-.23-.15-.37-.15-.27.05-.37.15l-.38.37ZM5.29,5.81c0,.15.05.27.15.37s.23.15.37.15.27-.05.37-.15.15-.23.15-.37v-.53c0-.15-.05-.27-.15-.37s-.23-.15-.37-.15-.26.05-.37.15c-.11.1-.16.23-.16.37v.53ZM7.68,6.36s-.03.04-.04.05l-2.2,2.2c-.1.1-.15.23-.15.37s.05.27.15.37.23.15.37.15.27-.05.37-.15l2.61-2.61c.1-.11.15-.23.15-.38s-.05-.27-.15-.37c-.11-.1-.23-.15-.38-.15s-.27.05-.37.15l-.37.37ZM5.29,12.67c0,.15.05.27.15.37s.23.15.37.15.27-.05.37-.15.15-.23.15-.37v-.53c0-.15-.05-.27-.15-.37s-.23-.15-.37-.15-.26.05-.37.15c-.11.1-.16.23-.16.37v.53ZM8.43,10.84c-.11-.1-.23-.15-.38-.15s-.27.05-.37.15-.15.23-.15.37.05.27.15.37l.38.37c.1.1.23.15.37.15s.27-.05.37-.15c.1-.1.15-.23.15-.37s-.05-.27-.15-.37l-.37-.38ZM8.99,8.44c-.15,0-.28.05-.38.15-.1.1-.15.23-.15.37s.05.27.15.37c.1.1.23.15.37.15h.53c.15,0,.27-.05.37-.15.1-.1.15-.23.15-.37s-.05-.27-.15-.37c-.1-.1-.23-.15-.37-.15h-.53Z"/>
      </g>
    </g>
  </g>
</svg>