<?xml version="1.0" encoding="UTF-8"?>
<svg id="Layer_2" xmlns="http://www.w3.org/2000/svg" viewBox="0 0 11.66 11.66">
  <defs>
    <style>
      .cls-1 {
        fill: #fff;
      }

      .cls-2 {
        fill: #ec2127;
      }
    </style>
  </defs>
  <g id="Interaction">
    <g id="Final_screen">
      <g id="Reaction">
        <g>
          <circle class="cls-2" cx="5.83" cy="5.83" r="5.83"/>
          <path class="cls-1" d="M8.4,2.56c.19,0,.36.07.5.21.14.14.2.3.2.5s-.07.36-.2.49l-2.06,2.06s-.01.03,0,.04l2.06,2.06c.14.14.2.3.2.49s-.07.36-.2.5c-.14.14-.3.2-.5.2s-.36-.07-.5-.2l-2.05-2.06s-.03-.01-.04,0l-2.06,2.06c-.14.14-.3.2-.49.2s-.36-.07-.49-.2c-.14-.14-.21-.3-.21-.5s.07-.36.21-.49l2.05-2.06s.01-.03,0-.04l-2.05-2.06c-.14-.14-.21-.3-.21-.49s.07-.36.21-.5c.14-.14.3-.21.49-.21s.36.07.49.21l2.06,2.06s.03.01.04,0l2.05-2.06c.14-.14.3-.21.5-.21Z"/>
        </g>
      </g>
    </g>
  </g>
</svg>